<svg width="96" height="96" viewBox="0 0 96 96" xmlns="http://www.w3.org/2000/svg">
  <rect x="6" y="6" width="84" height="84" rx="24" fill="#2563EB" />
  <rect x="12" y="12" width="72" height="72" rx="20" fill="#1E3A8A" opacity="0.35" />
  <path d="M30 24h23.6c11.3 0 19.8 7.7 19.8 18.6 0 9.3-5.6 15.7-14.4 18l13.3 15h-13.6l-12.2-14.1H43.8V72H30V24Zm23.3 27.1c4.8 0 7.9-2.7 7.9-7 0-4.2-3.1-6.8-7.9-6.8H43.8v13.8h9.5Z" fill="#0B1120" opacity="0.28" />
  <path d="M30 24h23.6c11.3 0 19.8 7.7 19.8 18.6 0 9.3-5.6 15.7-14.4 18l13.3 15h-13.6l-12.2-14.1H43.8V72H30V24Zm23.3 27.1c4.8 0 7.9-2.7 7.9-7 0-4.2-3.1-6.8-7.9-6.8H43.8v13.8h9.5Z" fill="#FFFFFF" />
</svg>
